<?xml version="1.0" encoding="UTF-8"?>
<svg width="483px" height="823px" viewBox="0 0 483 823" version="1.1" xmlns="http://www.w3.org/2000/svg" xmlns:xlink="http://www.w3.org/1999/xlink">
    <!-- Generator: Sketch 63.1 (92452) - https://sketch.com -->
    <title>Overlays</title>
    <desc>Created with Sketch.</desc>
    <g id="03.laptop" stroke="none" stroke-width="1" fill="none" fill-rule="evenodd" fill-opacity="0.4">
        <g id="1440_12.0_Get-in-touch_Revised-map" transform="translate(-690.000000, -897.000000)" fill="#FEB006">
            <g id="map" transform="translate(472.000000, 892.000000)">
                <g transform="translate(-72.000000, -27.000000)" id="Overlays">
                    <g transform="translate(290.399124, 32.386368)">
                        <path d="M226.79118,313.34921 C204.094909,313.34921 194.259859,298.177138 175.3463,308.038985 C156.432742,317.900832 129.95376,393.002591 115.579455,417.277907 C101.205151,441.553223 95.3177714,427.898358 84.9796203,427.898358 C62.1873431,427.898358 39.0037528,475.242279 55.0560682,486.310837 C71.1083836,497.379395 68.4370326,503.639392 64.2056913,508.332114 L62.8582894,509.826564 C57.5980505,515.660225 68.9393767,528.034795 74.7261691,533.344262 C81.5327805,539.589087 80.8594578,547.1334 73.2130844,552.309353 L40.1567233,567.269548 C32.878786,572.195161 30.0901709,590.239534 44.4644754,599.342778 C58.8387799,608.446021 88.3439312,619.825076 86.8308465,634.997148 C85.3177618,650.169221 65.4433945,674.900989 70.186915,686.582195 C74.9304355,698.263401 89.8570159,707.064493 98.935524,715.409133 C108.014032,723.753773 98.5562589,743.838756 120.376453,743.993474 C126.655157,744.036381 135.202805,732.688578 138.786334,728.92594 C141.932306,725.622728 144.822774,712.92446 147.457735,690.831138 C149.771242,683.874743 154.591318,678.916505 161.728538,680.513366 C175.299901,689.250295 181.780424,684.274475 181.170109,665.585907 C180.709534,651.482541 204.099816,673.602359 208.466715,659.644638 C212.833613,645.686917 198.043975,621.676335 194.607112,611.672135 C189.635532,597.200601 194.548297,585.694086 199.631505,571.96814 C204.714713,558.242193 218.74474,543.394779 240.918095,537.721178 C256.311622,533.782363 272.917099,515.524192 280.042771,496.826335 C286.242218,480.558904 279.892233,462.003451 278.885929,456.714448 C276.722974,445.346241 269.157551,438.518809 265.374839,427.898358 C261.592127,417.277907 260.835585,393.761195 280.505686,381.623537 C293.619086,373.531765 305.520986,357.348221 316.211384,333.072904 C318.879708,329.081132 317.57626,305.763174 306.984668,304.245967 C296.393075,302.728759 249.48745,313.34921 226.79118,313.34921 Z" id="Highlands"></path>
                        <path d="M102.049184,327.905447 C93.4600312,321.774229 39.2039229,340.753126 30.3273659,363.655966 C24.3559421,379.06313 36.3789915,398.262555 30.3273659,417.581603 C25.9366876,429.485518 4.93978043,428.965777 1.42910356,441.904919 C-1.60957394,453.104435 6.53304486,466.573775 6.53304486,484.822911 C6.53304486,515.003445 -3.67483773,535.260161 1.42910356,541.218462 C6.53304486,547.176764 28.0387026,525.582226 32.4060499,501.992329 C36.7733971,478.402432 29.8918533,464.193254 39.9241976,445.648995 C49.9565419,427.104735 84.0154066,406.922812 92.8289822,392.087608 C101.642558,377.252404 110.638338,334.036664 102.049184,327.905447 Z" id="Western-Isles"></path>
                        <path d="M286.405418,243.19268 C277.394207,265.658798 276.372478,281.123227 287.994876,294.218603 C299.617274,307.313978 342.766527,312.283214 352.954469,268.309423 C363.142411,224.335633 356.423212,209.817724 335.085215,205.887644 C313.747219,201.957564 295.416628,220.726563 286.405418,243.19268 Z" id="Orkney"></path>
                        <path d="M401.209608,71.8487335 C393.731039,102.424923 404.952629,154.706578 424.663809,156.912249 C444.374989,159.11792 454.777321,115.658971 465.17299,80.5070052 C475.568659,45.3550398 494.054892,8.70206867 472.251207,0.850905938 C450.447523,-7.0002568 408.688177,41.2725436 401.209608,71.8487335 Z" id="Shetland"></path>
                        <path d="M390.93626,438.615922 C371.389351,420.945352 288.354323,426.16921 271.06208,434.480297 C253.769837,442.791384 260.259546,459.895599 267.052987,469.164858 C273.846427,478.434116 279.644815,487.195948 277.053354,499.399021 C274.461894,511.602094 253.117823,523.113303 252.999322,531.610548 C252.883431,540.107794 260.649803,545.270464 279.372868,544.457493 C298.095933,543.644522 301.292093,526.204568 321.415289,531.610548 C341.538484,537.016529 329.630861,573.043453 351.922445,558.190903 C374.214028,543.338353 410.48317,456.286491 390.93626,438.615922 Z" id="Grampian"></path>
                        <path d="M318.977594,526.893295 C303.740751,524.422881 305.981248,536.904337 280.042771,534.792722 C254.104295,532.681106 232.666051,529.574953 215.729407,540.220835 C198.792763,550.866717 191.338969,571.278694 194.540028,582.412855 C197.741087,593.547017 221.537899,578.806104 228.757748,588.889513 C235.977596,598.972923 225.687887,610.752914 232.196676,616.952236 C238.705466,623.151559 263.349241,639.28001 279.372868,638.306639 C295.396494,637.333268 271.031365,609.494024 306.491651,597.200601 C317.339758,593.439763 331.122278,596.838887 338.192145,591.64843 C358.350603,576.848776 334.214438,529.36371 318.977594,526.893295 Z" id="Tayside"></path>
                        <path d="M194.540028,585.370105 C186.332979,590.308754 183.207691,595.646713 183.207691,602.931797 C183.207691,610.216881 184.345294,607.909336 191.690224,622.942209 C199.035153,637.975083 209.887599,661.621802 217.720505,660.934066 C225.553411,660.246329 224.509587,650.010683 233.912455,652.233625 C243.315324,654.456567 243.145599,669.050474 252.999322,668.615752 C262.853044,668.181029 267.760035,663.045453 269.070491,656.381459 C270.380948,649.717465 255.334134,649.717465 255.937249,645.404607 C256.540364,641.09175 273.304052,637.932416 267.841721,628.498807 C262.37939,619.065199 235.408686,617.375942 230.794121,611.909162 C226.179555,606.442382 239.765582,599.117724 236.615469,591.785277 C233.465356,584.452831 202.747077,580.431456 194.540028,585.370105 Z" id="Forth-Valley"></path>
                        <path d="M225.077519,648.639492 C221.092683,648.639492 215.193259,653.890452 209.505535,655.115925 C205.648344,655.946993 209.035547,662.892574 204.68706,663.764323 C193.749774,665.95694 189.968706,658.049257 184.951954,657.175053 C179.935202,656.30085 173.533685,664.215165 189.451727,678.889237 C205.369768,693.563308 218.517961,698.562369 222.880087,695.885402 C227.242212,693.208435 218.609327,687.405238 222.880087,681.635437 C227.150846,675.865636 235.76232,675.533473 237.293459,668.625267 C238.824598,661.717062 231.692275,648.639492 225.077519,648.639492 Z" id="Greater-Glasgow-and-Clyde"></path>
                        <path d="M347.958206,619.718085 C351.649291,608.86198 341.007298,593.522938 324.762077,590.961033 C308.516855,588.399127 290.891288,602.135927 282.900663,609.458372 C274.910039,616.780818 286.433722,624.211931 282.900663,629.321979 C279.367604,634.432027 271.973539,631.919326 264.922208,635.461552 C257.870878,639.003777 252.576406,640.637464 253.091413,644.296612 C253.60642,647.95576 252.819717,649.209852 267.052987,650.600833 C281.286256,651.991813 285.807799,654.223958 297.530123,648.639492 C309.252446,643.055026 298.167856,637.093986 311.71932,629.321979 C325.270783,621.549973 344.26712,630.574189 347.958206,619.718085 Z" id="Fife"></path>
                        <path d="M358.702115,655.115925 C358.702115,646.9021 339.799522,634.337528 328.936822,633.685587 C318.074122,633.033647 315.621942,645.856856 307.376234,648.639492 C299.130527,651.422128 277.100836,646.784677 267.052987,652.236932 C257.005137,657.689188 249.446339,677.510629 256.311622,682.729584 C263.176906,687.948538 281.062029,677.696091 288.887351,680.236898 C296.712673,682.777704 293.369432,691.138873 298.69068,693.938511 C302.391118,695.885402 306.481498,687.520227 315.301694,682.729584 C333.098075,673.063573 358.702115,660.607855 358.702115,655.115925 Z" id="Lothian"></path>
                        <path d="M231.801128,650.219271 C226.859323,653.296693 237.855939,660.781746 234.587707,670.54018 C231.319475,680.298614 219.183037,677.091638 221.92008,687.948538 C224.657123,698.805439 219.01421,707.115838 224.414868,709.812089 C227.714336,711.459331 242.459661,701.501151 242.459661,711.384307 C242.459661,721.267462 259.886091,747.300628 263.02927,747.982891 C269.158549,749.313321 270.748785,742.326342 274.783851,718.197374 C278.818917,694.068406 284.284734,687.948538 279.372868,680.236898 C274.461002,672.525257 262.740855,684.510992 258.408113,681.786637 C254.07537,679.062282 257.59823,669.079899 253.05681,663.764323 C248.51539,658.448747 236.742934,647.141849 231.801128,650.219271 Z" id="Lanarkshire"></path>
                        <path d="M180.987565,775.477914 C195.368488,775.477914 202.209885,768.9865 209.889184,762.225099 C217.568483,755.463699 208.616314,746.724997 220.746009,742.60704 C232.875704,738.489083 251.538216,708.45614 236.50705,706.442505 C221.475884,704.428869 206.481082,686.339332 194.540028,680.236898 C182.598974,674.134463 176.290752,682.371844 169.456443,684.13023 C162.622134,685.888617 159.580913,677.877587 154.481861,680.236898 C149.382808,682.596208 148.440046,683.083235 148.258327,693.938511 C148.076608,704.793787 153.770402,729.749808 165.301324,718.088631 C176.832246,706.427455 197.313874,698.109628 193.81473,711.683806 C192.029804,718.608041 191.18374,722.3564 190.321937,725.590485 C189.494272,728.696458 188.65209,731.328094 186.949801,735.843057 C183.475008,745.059213 177.029134,749.350701 176.832246,754.614077 C176.635358,759.877453 166.606642,775.477914 180.987565,775.477914 Z" id="Ayrshire-&amp;-Arran"></path>
                        <path d="M367.166696,652.236932 C377.316772,652.236932 382.085223,660.650627 382.085223,672.256125 C382.085223,683.861622 374.003729,679.961407 372.433664,691.349163 C370.8636,702.736919 379.536129,703.349745 369.9235,721.80475 C360.310872,740.259755 351.043718,738.902475 343.503797,745.703681 C335.963876,752.504887 333.405098,763.043475 326.303227,758.377407 C319.201357,753.71134 329.093987,742.649549 317.402013,730.299111 C305.710039,717.948672 294.686024,728.173816 284.897166,714.201358 C275.108309,700.228901 276.945127,682.13737 287.892153,678.860219 C298.839178,675.583068 291.99695,702.622165 306.186148,689.291966 C320.375345,675.961768 330.677132,670.848261 343.503797,663.944368 C356.330463,657.040475 357.016621,652.236932 367.166696,652.236932 Z" id="Borders"></path>
                        <path d="M326.303227,758.377407 C329.043832,748.13249 327.109114,742.857446 324.806109,736.963255 C322.503104,731.069063 330.997265,739.932043 313.945015,726.748439 C296.892765,713.564835 291.925821,695.055199 278.513643,701.173167 C265.101466,707.291136 275.936056,741.206742 267.052987,743.993474 C258.169917,746.780205 249.042123,715.036562 239.444729,713.429582 C229.847334,711.822602 224.661618,732.217931 218.783441,741.175309 C212.905263,750.132687 215.334599,751.586527 208.419302,759.532041 C201.504006,767.477556 200.180443,770.399155 193.81473,773.278351 C187.449017,776.157548 182.495891,775.925102 177.003231,773.278351 C171.510571,770.631601 172.286352,762.525622 171.500168,762.525622 C170.713984,762.525622 157.285077,748.773132 159.506026,769.756432 C161.726976,790.739731 173.899849,809.887376 177.003231,814.517978 C180.106613,819.14858 188.904433,826.566612 191.878252,818.05951 C194.85207,809.552407 177.074786,791.763846 185.314543,790.742088 C193.554299,789.72033 214.158127,813.594942 221.52143,814.383653 C228.884732,815.172364 218.625595,797.650088 226.179555,795.119293 C233.733516,792.588499 237.87181,806.078407 251.419363,804.366985 C264.966915,802.655563 268.823758,793.945844 276.364548,788.779573 C283.905338,783.613301 279.793253,780.611938 289.689594,777.688707 C299.585935,774.765476 300.68467,783.114804 310.784154,777.688707 C320.883638,772.262611 323.562623,768.622325 326.303227,758.377407 Z" id="Dumfries-&amp;-Galloway"></path>
                    </g>
                </g>
            </g>
        </g>
    </g>
</svg>